<?xml version="1.0" encoding="UTF-8" standalone="no"?>
<!-- Created with Inkscape (http://www.inkscape.org/) -->

<svg
   width="38mm"
   height="36mm"
   viewBox="-1 -1.3 38 35.999999"
   version="1.1"
   id="svg1"
   xml:space="preserve"
   inkscape:version="1.3.2 (091e20ef0f, 2023-11-25, custom)"
   sodipodi:docname="icon_dark.svg"
   inkscape:export-filename="icon_dark.png"
   inkscape:export-xdpi="900"
   inkscape:export-ydpi="900"
   xmlns:inkscape="http://www.inkscape.org/namespaces/inkscape"
   xmlns:sodipodi="http://sodipodi.sourceforge.net/DTD/sodipodi-0.dtd"
   xmlns="http://www.w3.org/2000/svg"
   xmlns:svg="http://www.w3.org/2000/svg"><sodipodi:namedview
     id="namedview1"
     pagecolor="#000000"
     bordercolor="#000000"
     borderopacity="0.25"
     inkscape:showpageshadow="2"
     inkscape:pageopacity="0.0"
     inkscape:pagecheckerboard="0"
     inkscape:deskcolor="#d1d1d1"
     inkscape:document-units="mm"
     showguides="true"
     inkscape:zoom="4"
     inkscape:cx="35.5"
     inkscape:cy="70"
     inkscape:window-width="1920"
     inkscape:window-height="1052"
     inkscape:window-x="316"
     inkscape:window-y="1440"
     inkscape:window-maximized="1"
     inkscape:current-layer="layer1"><sodipodi:guide
       position="18.023304,32.843439"
       orientation="1,0"
       id="guide3"
       inkscape:locked="false" /><sodipodi:guide
       position="18.032391,5.8644896"
       orientation="0,-1"
       id="guide4"
       inkscape:locked="false" /><sodipodi:guide
       position="18.032391,0.052623701"
       orientation="0,-1"
       id="guide5"
       inkscape:locked="false" /></sodipodi:namedview><defs
     id="defs1" /><g
     inkscape:label="Crown"
     inkscape:groupmode="layer"
     id="layer1"
     transform="translate(-141.08321,-159.88147)"><path
       id="path1"
       style="display:inline;fill:#d8b931;fill-opacity:1;stroke:none;stroke-width:0.1;stroke-dasharray:none"
       d="m 174.18765,159.88275 v 5.2e-4 c -0.19303,0.006 -0.44015,0.0349 -0.69505,0.0827 -1.59403,0.29905 -2.65703,2.37527 -2.07326,4.04988 l 0.2558,0.73432 h -1.25832 c -1.44439,0 -2.22588,0.54049 -2.82308,1.95234 -0.31301,0.74001 -0.32012,1.03657 -0.0408,1.71979 0.62279,1.5237 1.66823,2.14954 3.18585,1.90686 l 1.03612,-0.16536 -0.17984,0.99735 c -0.40216,2.22738 -1.34962,3.24953 -3.00085,3.23753 -1.32683,-0.01 -2.20776,-0.55141 -2.52594,-1.55391 -0.19092,-0.60152 -0.19703,-0.59962 -0.6811,0.19637 -0.623,1.02443 -1.27467,1.36633 -2.60191,1.36633 -0.73825,0 -1.28503,-0.19306 -1.79834,-0.63459 -0.64355,-0.55357 -0.75566,-0.87434 -0.87746,-2.51354 -0.14129,-1.90167 -0.0496,-2.17716 0.50333,-1.51102 0.44356,0.53446 1.87968,0.682 2.83342,0.29094 2.33559,-0.95766 2.24051,-4.16072 -0.15297,-5.15214 -0.44049,-0.18258 -1.04934,-0.26699 -1.35289,-0.18759 -0.44187,0.11556 -0.51216,0.0561 -0.35346,-0.29921 0.10901,-0.24403 0.24921,-0.94743 0.31161,-1.56269 0.098,-0.96645 0.007,-1.22571 -0.67283,-1.90479 -0.65622,-0.65622 -1.36769,-1.00182 -2.08101,-1.03922 v 0.006 c -0.71193,0.0385 -1.42194,0.38376 -2.07688,1.0387 -0.67956,0.67908 -0.77082,0.93834 -0.67282,1.90479 0.0624,0.61526 0.20259,1.31866 0.3116,1.5627 0.1587,0.35529 0.0884,0.41477 -0.35346,0.29921 -0.30355,-0.0794 -0.9124,0.005 -1.35289,0.18758 -2.39349,0.99142 -2.48856,4.19449 -0.15296,5.15214 0.95374,0.39106 2.38986,0.24352 2.83342,-0.29094 0.55289,-0.66614 0.64461,-0.39065 0.50332,1.51102 -0.1218,1.63919 -0.23391,1.95997 -0.87746,2.51354 -0.51331,0.44153 -1.06009,0.63459 -1.79834,0.63459 -1.32725,0 -1.97891,-0.3419 -2.60191,-1.36632 -0.48407,-0.79599 -0.49018,-0.79789 -0.6811,-0.19637 -0.31818,1.00249 -1.19911,1.54391 -2.52594,1.55391 -1.65123,0.012 -2.59869,-1.01015 -3.00085,-3.23753 l -0.17983,-0.99736 1.03611,0.16537 c 1.51762,0.24268 2.56306,-0.38317 3.18585,-1.90686 0.27926,-0.68323 0.27219,-0.97979 -0.0408,-1.7198 -0.5972,-1.41184 -1.37871,-1.95233 -2.82309,-1.95233 h -1.25832 l 0.2558,-0.73432 c 0.58377,-1.67461 -0.47923,-3.75084 -2.07326,-4.04989 -0.2549,-0.0478 -0.50202,-0.0762 -0.69505,-0.0827 -0.19304,-0.006 -0.33205,0.009 -0.37,0.0465 -0.0759,0.0759 -0.007,1.37044 0.15193,2.87631 0.15933,1.50588 0.40987,3.92846 0.55707,5.38365 0.25307,2.50201 0.62157,5.76361 0.93379,8.26823 l 0.14005,1.12448 h 13.59193 0.0382 v -0.006 h 0.0341 13.59193 l 0.14005,-1.12448 c 0.31222,-2.50463 0.68072,-5.76622 0.93379,-8.26823 0.1472,-1.4552 0.39774,-3.87777 0.55707,-5.38365 0.15892,-1.50588 0.22783,-2.80041 0.15193,-2.87631 -0.0379,-0.0375 -0.17696,-0.0525 -0.37,-0.0465 z m -15.04301,18.55752 v 0.006 l -13.50254,0.0682 0.0661,1.45521 c 0.0636,1.40214 0.47309,4.27764 0.70642,4.96093 0.0876,0.2566 2.90597,0.32915 12.7341,0.33022 v -0.006 c 9.8241,-0.001 12.64239,-0.0737 12.72998,-0.33022 0.23333,-0.6833 0.64281,-3.5588 0.70641,-4.96093 l 0.0661,-1.45521 z" /></g><g
     inkscape:groupmode="layer"
     id="g25"
     inkscape:label="Tentacles"
     style="display:inline;fill:#000000;stroke:none"
     transform="translate(-2.0412195,-2.5091586)"><g
       inkscape:groupmode="layer"
       id="layer10"
       inkscape:label="Tentacle-6"><path
         id="path22"
         style="display:inline;fill:#474747;stroke:none;stroke-width:0.1;stroke-dasharray:none;fill-opacity:1"
         d="m 3.1191895,14.663704 c -0.7001034,-0.0084 -1.2604889,0.549543 0.093534,1.024227 0.1107832,0.03884 0.2118569,0.09737 0.3054077,0.169499 a 0.59980709,0.2993817 56.39322 0 0 0.1607137,0.393258 0.59980709,0.2993817 56.39322 0 0 0.3710368,0.334863 c 0.061641,0.13512 0.1174074,0.277272 0.1653646,0.428398 a 0.74520843,0.37424728 78.929126 0 0 -0.037207,0.623217 0.74520843,0.37424728 78.929126 0 0 0.2899047,0.582394 c 0.028628,0.222269 0.047939,0.439315 0.062528,0.646989 a 0.74520843,0.37424728 86.589079 0 0 -0.1948201,0.705383 0.74520843,0.37424728 86.589079 0 0 0.2237589,0.631486 c -0.00112,0.03022 -0.0031,0.08837 -0.0031,0.08837 0,0 -0.031235,0.243546 -0.068213,0.580843 a 0.43821615,0.86816406 4.5992469 0 0 -0.3121256,0.759643 0.43821615,0.86816406 4.5992469 0 0 0.188619,0.802019 c -0.011569,0.227319 -0.021198,0.462114 -0.027905,0.714685 a 0.86816406,0.43821615 87.554515 0 0 -0.296106,0.855761 0.86816406,0.43821615 87.554515 0 0 0.2997233,0.785482 c 0.00837,0.260537 0.020984,0.52658 0.038241,0.796851 a 0.86816406,0.43821615 87.554515 0 0 -0.269751,0.837675 0.86816406,0.43821615 87.554515 0 0 0.4428671,0.845426 c 0.028442,0.199472 0.06303,0.398757 0.098185,0.598413 a 0.86816406,0.43821615 77.256558 0 0 -0.1498617,0.901754 0.86816406,0.43821615 77.256558 0 0 0.5265829,0.750342 c 0.046902,0.160352 0.096479,0.319461 0.1493449,0.476973 a 0.86816406,0.43821615 70.811874 0 0 -0.00672,0.866097 0.86816406,0.43821615 70.811874 0 0 0.675411,0.680579 c 0.074525,0.133286 0.1521634,0.264271 0.2340942,0.392741 a 0.86816406,0.43821615 65.20096 0 0 0.1007691,0.815454 0.86816406,0.43821615 65.20096 0 0 0.7622273,0.604097 0.86816406,0.43821615 65.20096 0 0 0.1286744,-0.139526 c 0.5612096,0.609948 1.1897412,1.149825 1.8298624,1.619539 a 0.86816406,0.43821615 37.779929 0 0 0.4656047,0.742591 0.86816406,0.43821615 37.779929 0 0 0.9523962,0.187585 c 1.739773,1.024471 3.232878,1.522388 3.232878,1.522388 l 3.681429,-0.02997 c 0,0 -8.3357831,-5.514407 -10.0531331,-9.369453 C 6.1735937,25.631958 6.2669298,24.56256 6.2011719,20.312455 6.1532458,17.214888 4.8053948,15.064616 3.4225301,14.704012 3.3219761,14.677791 3.2192042,14.66491 3.1191895,14.663704 Z" /></g><g
       inkscape:groupmode="layer"
       id="layer9"
       inkscape:label="Tentacle-5"
       style="display:inline"><path
         id="path145"
         style="display:inline;stroke-width:0.1;fill:#474747;fill-opacity:1"
         d="m 2.6019084,3.8938192 c -0.014923,-7.07e-5 -0.029641,0.00125 -0.044442,0.00413 -0.473614,0.092259 -0.4242635,0.6376872 -0.4242635,0.6376872 0,0 0.077956,2.7925596 2.2071004,4.341337 C 4.659348,9.1090561 4.9791168,9.4200614 5.2937337,9.7714966 5.1858324,8.7165944 5.0733971,7.6269801 4.9604207,6.5468872 A 0.81555366,0.35988769 50.214727 0 0 4.7873047,6.2626668 0.81555366,0.35988769 50.214727 0 0 4.0111247,5.8626912 C 3.7611313,5.536956 3.5770426,5.2730632 3.5770426,5.2730632 c 0,0 -0.5125253,-1.3770528 -0.9751342,-1.379244 z M 10.46086,12.656592 c -0.5328524,0.326549 -1.1794988,0.428846 -1.9482013,0.305924 l -1.0361125,-0.165364 0.039791,0.219625 c 0.6904971,1.221975 1.1539347,2.220536 1.1539347,2.220536 0,0 0.229432,0.464123 0.4986776,1.4118 0.2313434,0.81427 0.489349,1.992829 0.6604248,3.566707 0.031514,0.289926 0.059574,0.593207 0.084233,0.910022 0.089628,1.151566 0.1320397,2.471466 0.085266,3.988904 -0.028548,0.926157 -0.1991022,1.823375 -0.4661214,2.685108 -1.7046576,5.501314 -7.4915324,9.496577 -7.4915324,9.496577 l 5.6642537,-0.04547 c 0.017263,-0.01461 0.032457,-0.02881 0.049609,-0.04341 a 0.41815422,0.95620936 48.968713 0 0 0.984436,-0.350366 0.41815422,0.95620936 48.968713 0 0 0.4258138,-0.936377 0.41815422,0.95620936 48.968713 0 0 -0.013436,-0.01034 c 0.1341226,-0.136362 0.2613374,-0.271725 0.3865397,-0.406694 a 0.41815422,0.95620937 38.745346 0 1 5.167e-4,0 0.41815422,0.95620937 38.745346 0 0 0.9146726,-0.515214 0.41815422,0.95620937 38.745346 0 0 0.300241,-0.943095 c 0.841949,-1.136404 1.394996,-2.196293 1.771984,-3.131075 a 0.41815422,0.95620937 20.877482 0 0 0.549838,-0.746208 0.41815422,0.95620937 20.877482 0 0 0.01344,-0.974617 c 0.03588,-0.136258 0.07654,-0.281386 0.10697,-0.406694 0.01425,-0.05868 0.0256,-0.120563 0.03824,-0.180867 a 0.41815422,0.95620937 1.4201316 0 0 0.08475,0.02015 0.41815422,0.95620937 1.4201316 0 0 0.419612,-0.756543 0.41815422,0.95620937 1.4201316 0 0 0.01395,-0.20929 0.41815422,0.95620937 1.4201316 0 0 -0.340031,-0.935343 c 0.0033,-0.254983 0.0013,-0.500088 -0.0062,-0.73794 a 0.95620937,0.41815422 85.959701 0 0 0.02842,-10e-4 0.95620937,0.41815422 85.959701 0 0 0.338997,-1.002523 0.95620937,0.41815422 85.959701 0 0 -0.491443,-0.903304 0.95620937,0.41815422 85.959701 0 0 -0.02325,0.0062 c -0.002,-0.02818 -0.0274,-0.337072 -0.06563,-0.779797 a 0.95620937,0.41815422 85.959701 0 0 0.270268,-0.978752 0.95620937,0.41815422 85.959701 0 0 -0.459404,-0.90227 c -0.01275,-0.107097 -0.02707,-0.210558 -0.04082,-0.315227 -0.01182,-0.08992 -0.02297,-0.181219 -0.03514,-0.270784 A 0.95620937,0.41815422 79.942961 0 0 13.15476,20.215846 0.95620937,0.41815422 79.942961 0 0 13.1253,19.820522 0.95620937,0.41815422 79.942961 0 0 12.551692,18.973028 c -0.157086,-0.537771 -0.395263,-1.294027 -0.679545,-2.146122 -0.0087,-0.02604 -0.01189,-0.03938 -0.02067,-0.06563 a 0.95620937,0.41815422 79.942961 0 0 0.03927,-0.828373 0.95620937,0.41815422 79.942961 0 0 -0.583944,-0.846977 0.95620937,0.41815422 79.942961 0 0 -0.03514,0.01395 C 11.17781,14.845477 11.083261,14.591569 10.98641,14.343311 a 0.95620936,0.41815422 71.045831 0 0 -0.0248,-0.977719 0.95620936,0.41815422 71.045831 0 0 -0.500745,-0.709 z" /></g><g
       inkscape:groupmode="layer"
       id="layer8"
       inkscape:label="Tentacle-4"><path
         id="path24"
         style="display:inline;fill:#474747;stroke:none;stroke-width:0.1;stroke-dasharray:none;fill-opacity:1"
         d="m 21.258651,24.964368 c -6.446734,0.0016 -9.653158,7.861019 -9.653158,7.861019 -1.039863,3.360982 -2.8225666,4.419368 -2.8225666,4.419368 l 15.7096356,0.05581 c 0,0 -6.802728,-3.484243 -7.520471,-4.029729 -0.03811,-0.02896 -0.07312,-0.06202 -0.106454,-0.09715 a 0.40514323,0.9343099 0 0 0 0.100769,-0.6134 0.40514323,0.9343099 0 0 0 -0.405143,-0.934309 0.40514323,0.9343099 0 0 0 -0.01912,0.0026 c 0.02919,-0.228494 0.08225,-0.468682 0.156579,-0.714685 a 0.40514323,0.9343099 26.047531 0 0 0.763778,-0.664559 0.40514323,0.9343099 26.047531 0 0 0.06925,-1.003556 c 0.136987,-0.19061 0.286901,-0.376343 0.451136,-0.554488 a 0.40514323,0.9343099 49.967815 0 0 0.940511,-0.321944 0.40514323,0.9343099 49.967815 0 0 0.499194,-0.800468 c 0.230363,-0.12349 0.475207,-0.230277 0.732255,-0.320911 a 0.40514323,0.9343099 80.987987 0 0 0.946712,0.167949 0.40514323,0.9343099 80.987987 0 0 0.856279,-0.474907 c 0.02821,-1.69e-4 0.05529,-0.0023 0.08372,-0.0021 0.306602,0.0024 0.605525,0.02316 0.898136,0.05788 a 0.9343099,0.40514323 11.61273 0 0 0.805119,0.439766 0.9343099,0.40514323 11.61273 0 0 0.877466,-0.06046 c 0.628704,0.208903 1.215895,0.483541 1.76785,0.79375 a 0.81210258,0.34049377 22.362127 0 0 0.608749,0.503328 0.81210258,0.34049377 22.362127 0 0 0.381889,0.113688 c 1.77039,1.217941 3.081296,2.699179 3.956347,3.33003 1.596934,1.151277 0.649573,-1.074353 0.649573,-1.074353 0,0 -3.223437,-5.514877 -10.093957,-6.053378 -0.214704,-0.01683 -0.426111,-0.02486 -0.63407,-0.0248 z" /></g><g
       inkscape:groupmode="layer"
       id="layer7"
       inkscape:label="Tentacle-3"
       style="display:inline"><path
         id="path111"
         style="display:inline;stroke-width:0.1;fill:#474747;fill-opacity:1"
         d="m 16.234151,6.6424886 c -0.07751,-0.00204 -0.155581,-0.00129 -0.234611,0.00207 -0.1326,0.00562 -0.266896,0.017086 -0.401526,0.031006 -1.076998,0.1114198 -3.936775,1.4484847 -3.416845,5.6079264 0.206695,1.653572 1.650439,3.202265 3.663342,4.720642 0.191503,0.02193 0.393528,0.03669 0.621667,0.03669 0.73825,0 1.285032,-0.193058 1.79834,-0.634586 0.166627,-0.143329 0.296761,-0.271786 0.401526,-0.410828 a 0.79512686,0.44433555 26.892313 0 0 -0.532267,-0.09973 c -0.2296,-0.13267 -0.464486,-0.276859 -0.701766,-0.433049 a 0.69715366,0.39412333 33.90947 0 0 -0.40566,-0.583427 0.69715366,0.39412333 33.90947 0 0 -0.607715,-0.166915 c -0.18335,-0.15266 -0.361279,-0.312874 -0.533817,-0.481624 a 0.69715367,0.39412333 49.46482 0 0 -0.243396,-0.629419 0.69715367,0.39412333 49.46482 0 0 -0.585494,-0.323494 c -0.1149,-0.16118 -0.222114,-0.328195 -0.320394,-0.500745 a 0.69715366,0.39412333 68.888643 0 0 0.0041,-0.713652 0.69715366,0.39412333 68.888643 0 0 -0.505396,-0.51263 c -0.03666,-0.14155 -0.06936,-0.284872 -0.09302,-0.432532 -6.9e-4,-0.0043 -8.32e-4,-0.0081 -0.0016,-0.0124 a 0.60208982,0.33987085 85.071184 0 0 0.0801,-0.153996 c -0.08139,-0.277669 -0.120088,-0.566418 -0.110071,-0.856278 a 0.60208982,0.33987085 85.071184 0 0 -0.03359,-0.04909 c 0.01462,-0.2407691 0.05235,-0.4505261 0.109554,-0.6314857 a 0.33987085,0.60208982 42.197769 0 0 0.03669,-0.00155 0.33987085,0.60208982 42.197769 0 0 0.483691,-0.2769857 0.33987085,0.60208982 42.197769 0 0 0.192753,-0.6035807 c 0.11939,-0.06167 0.243127,-0.1119236 0.372587,-0.1415934 a 0.50250606,0.27880008 3.740537 0 0 0.478524,0.2444295 0.50250606,0.27880008 3.740537 0 0 0.513147,-0.2423625 c 0.14134,0.02709 0.273491,0.060185 0.384989,0.098185 a 0.50250606,0.27880008 40.889493 0 0 0.242363,0.3932576 0.50250606,0.27880008 40.889493 0 0 0.427364,0.1741496 c 0.43145,0.521729 1.128317,1.1907283 0.814937,-0.3963583 -0.113566,-0.5751704 -0.281273,-0.9793395 -0.481624,-1.2800252 -0.01732,0.00251 -0.03737,0.00348 -0.05995,0.00258 0.02258,8.992e-4 0.04263,-7.4e-5 0.05995,-0.00258 C 17.276642,6.8204806 16.776746,6.6567435 16.234151,6.6424886 Z m 1.076937,0.6903971 c 0.08029,0.020999 0.147847,0.036034 0.204122,0.044442 -0.05627,-0.00841 -0.123829,-0.023442 -0.204122,-0.044442 z m -2.683557,1.2355835 c -0.06139,0.087422 -0.117486,0.1775273 -0.167948,0.269751 -0.05046,0.092224 -0.09533,0.1866669 -0.134876,0.2826701 0.03954,-0.096003 0.08441,-0.1904464 0.134876,-0.2826701 0.05046,-0.092224 0.106561,-0.1823292 0.167948,-0.269751 z m 6.128308,11.6411498 c 0.479378,0.289049 0.954549,0.577547 1.438155,0.868681 l 5.270479,0.02687 c -0.05534,-0.0384 -0.107191,-0.0777 -0.163814,-0.115755 a 0.79512686,0.44433555 36.489577 0 0 -0.42168,-0.72192 0.79512686,0.44433555 36.489577 0 0 -0.109037,-0.05788 z m 10.292395,7.570597 c -0.759152,0.03163 -1.998877,0.05078 -3.393074,0.06666 -1.187991,4.149089 -6.412012,9.467639 -6.412012,9.467639 l 10.082588,-0.03256 c 0,0 0.231091,0.06681 -0.270267,-4.485514 -0.09017,-0.818778 -0.03879,-2.260463 -0.08837,-3.829741 a 0.44433555,0.79512686 0 0 0 0.206706,-0.669726 0.44433555,0.79512686 0 0 0 -0.125574,-0.516765 z" /></g><g
       inkscape:groupmode="layer"
       id="layer6"
       inkscape:label="Tentacle-2"
       style="display:inline"><path
         id="path97"
         style="display:inline;fill:#474747;stroke-width:0.1;fill-opacity:1"
         d="m 20.154325,11.436511 c -0.951718,-0.007 -1.817993,0.66725 -2.34921,1.373043 -0.358147,0.475845 -0.566722,0.966021 -0.541053,1.27124 0.05258,0.625099 0.6667,1.109099 1.644861,1.440222 0.109844,-0.332279 0.166974,-0.801115 0.222726,-1.52032 0.0033,-0.04211 0.0071,-0.06402 0.01034,-0.108004 0.0058,-0.07812 0.0048,-0.113358 0.0098,-0.186035 0.131529,-0.30679 0.54233,-0.504233 0.890384,-0.543636 0.226095,-0.0256 0.54305,-0.05058 0.996322,0.164848 0.425261,0.202112 0.970178,0.615246 1.682585,1.455725 0.136751,0.161336 0.252075,0.277651 0.357601,0.374654 0.184116,0.169249 0.327104,0.25618 0.432015,0.271818 0.482068,0.07186 0.235644,-1.192175 0.235644,-1.192175 0,0 -0.05725,-0.609864 -0.830957,-1.363741 -0.412209,-0.401646 -1.024314,-0.843439 -1.947168,-1.257288 -0.274445,-0.123073 -0.547422,-0.178384 -0.813904,-0.180351 z m 0.96635,3.099553 c 0.100899,0.964844 0.248145,1.352862 0.677994,1.754931 0.236072,0.118373 0.466432,0.27588 0.686263,0.483692 0.01597,0.008 0.03195,0.01558 0.04806,0.02325 0.611799,0.600042 1.129721,1.61406 1.391646,3.411678 0.0396,0.271811 0.07076,0.569488 0.09818,0.877983 0.02945,0.331292 0.04961,0.690653 0.06408,1.066085 -0.169471,0.09763 -0.286403,0.388898 -0.286288,0.713134 3.55e-4,0.333765 0.124546,0.617142 0.300757,0.686263 -0.0023,0.203206 -0.002,0.400295 -0.0083,0.61495 -0.199688,0.05099 -0.350923,0.369725 -0.350883,0.73949 5.43e-4,0.317689 0.113475,0.591534 0.278536,0.675411 -0.0198,0.254948 -0.04736,0.50477 -0.08165,0.749825 -0.192321,0.04616 -0.379752,0.310615 -0.452685,0.63872 -0.07733,0.350002 -0.0022,0.670098 0.176733,0.752926 -0.0128,0.04918 -0.02336,0.100058 -0.03669,0.148828 -0.04757,0.17407 -0.100654,0.343556 -0.155029,0.512113 -0.20108,0.0032 -0.434453,0.246852 -0.553455,0.577743 -0.110068,0.307194 -0.09272,0.610162 0.04237,0.740007 -0.08153,0.177182 -0.167333,0.350221 -0.255799,0.520381 -0.0042,-0.0028 -0.0085,-0.0054 -0.01292,-0.0078 -0.198084,-0.09059 -0.509588,0.12348 -0.695565,0.478007 -0.163571,0.312765 -0.177103,0.636875 -0.03204,0.767395 -0.128569,0.189856 -0.261194,0.37397 -0.396875,0.553454 -0.200529,-0.117557 -0.562752,0.05282 -0.819588,0.385507 -0.22557,0.29354 -0.301107,0.626115 -0.180868,0.796333 -0.178371,0.188302 -0.359496,0.368598 -0.542085,0.542603 -0.202066,-0.110868 -0.559483,0.05989 -0.813388,0.388607 -0.131262,0.170765 -0.215974,0.361131 -0.234094,0.526066 -2.333517,1.866819 -4.590417,2.651517 -4.590417,2.651517 l 9.657291,-0.01602 c 0,0 1.333049,-5.028036 2.162659,-9.422681 0.383233,-2.03007 0.505738,-3.774366 0.484836,-4.9657 -0.01056,-0.602112 -0.09529,-1.280835 -0.188233,-1.776392 -0.05907,-0.314957 -0.34072,-1.876095 -0.425448,-2.154267 -0.319842,-0.714864 -0.627564,-1.230061 -1.260977,-2.082532 -0.006,0.0012 -0.0121,0.0024 -0.01809,0.0036 -0.259826,-0.349699 -0.383331,-0.583137 -0.737879,-0.961272 -0.14898,-0.158892 -0.37217,-0.338938 -0.55844,-0.483368 -0.104909,-0.01564 -0.247897,-0.102569 -0.432015,-0.271818 -0.571411,-0.303366 -1.278856,-0.495143 -1.949751,-0.63872 z"
         sodipodi:nodetypes="cscccccssssscssccccccsscccccccccscccccccccccccccssscccscccc" /></g><g
       inkscape:groupmode="layer"
       id="layer5"
       inkscape:label="Tentacle-1"><path
         id="path50"
         style="display:inline;stroke-width:0.1;fill:#474747;fill-opacity:1"
         d="m 35.352364,6.6616089 c -0.03712,4.317e-4 -0.07589,0.00183 -0.116272,0.00465 -0.538928,0.037805 -1.393885,0.3052235 -3.199288,1.2407511 -1.780299,0.9225191 -2.670783,2.473214 -3.124357,3.896403 -0.282378,0.886022 -0.396621,1.722955 -0.447001,2.327506 -0.08339,1.000715 0.08057,1.844065 0.666109,2.870109 0.135412,0.01395 0.274216,0.02422 0.420646,0.02532 1.091322,0.0079 1.873474,-0.438983 2.39572,-1.383895 -0.0017,-0.0025 -0.003,-0.0053 -0.0047,-0.0078 a 0.52312878,0.21558059 62.097702 0 0 -0.112655,-0.49196 0.52312878,0.21558059 62.097702 0 0 -0.404109,-0.364836 c -0.02022,-0.03848 -0.04074,-0.07699 -0.05943,-0.114205 a 0.52312878,0.21558059 70.869636 0 1 5.16e-4,-5.16e-4 0.52312878,0.21558059 70.869636 0 0 -0.0186,-0.533818 0.52312878,0.21558059 70.869636 0 0 -0.341581,-0.42168 c -0.0072,-0.0344 -0.01576,-0.0704 -0.02067,-0.101802 -0.0047,-0.02985 -0.0057,-0.06559 -0.0036,-0.106454 a 0.21558059,0.52312878 10.451647 0 0 0.292488,-0.483174 0.21558059,0.52312878 10.451647 0 0 -0.02997,-0.468705 c 0.03214,-0.08197 0.06718,-0.166241 0.104903,-0.253215 a 0.21558059,0.52312878 23.884323 0 0 0.02325,0.01447 0.21558059,0.52312878 23.884323 0 0 0.40876,-0.398425 0.21558059,0.52312878 23.884323 0 0 0.03462,-0.545186 c 0.05225,-0.09136 0.106297,-0.182667 0.162781,-0.274402 a 0.21558059,0.52312878 28.176644 0 0 0.03049,0.02584 0.21558059,0.52312878 28.176644 0 0 0.4377,-0.366386 0.21558059,0.52312878 28.176644 0 0 0.106453,-0.486275 c 0.07044,-0.08993 0.141839,-0.178713 0.216008,-0.2651 a 0.17608638,0.42220734 41.052402 0 0 0.413411,-0.2123902 0.17608638,0.42220734 41.052402 0 0 0.164331,-0.3808553 c 0.08197,-0.072972 0.16616,-0.1421909 0.251148,-0.208256 a 0.17608638,0.42220734 57.991235 0 0 0.448551,-0.093018 0.17608638,0.42220734 57.991235 0 0 0.2651,-0.3503662 c 0.100578,-0.046585 0.203128,-0.085895 0.306441,-0.1198893 a 0.17608638,0.42220734 80.261703 0 0 0.442351,0.069246 0.17608638,0.42220734 80.261703 0 0 0.367936,-0.1912028 c 0.105988,0.00355 0.213208,0.015412 0.32091,0.03514 a 0.42220734,0.17608638 12.038107 0 0 -5.16e-4,0.00207 0.42220734,0.17608638 12.038107 0 0 0.385506,0.2583821 0.42220734,0.17608638 12.038107 0 0 0.393257,-0.025321 c 3.29045,1.023588 0.953244,-1.7259423 -0.526547,-2.0308374 -0.204089,-0.04205 -0.390283,-0.092939 -0.65009,-0.089917 z M 20.720182,12.887069 a 0.53787994,0.29817253 10.322702 0 0 -0.4439,0.211873 0.53787994,0.29817253 10.322702 0 0 0.47594,0.38964 0.53787994,0.29817253 10.322702 0 0 0.582393,-0.196887 0.53787994,0.29817253 10.322702 0 0 -0.47594,-0.38964 0.53787994,0.29817253 10.322702 0 0 -0.138493,-0.01499 z m -1.141532,0.15813 a 0.29817253,0.53787994 54.20264 0 0 -0.414445,0.155029 0.29817253,0.53787994 54.20264 0 0 -0.262,0.556555 0.29817253,0.53787994 54.20264 0 0 0.610816,-0.07286 0.29817253,0.53787994 54.20264 0 0 0.261999,-0.556038 0.29817253,0.53787994 54.20264 0 0 -0.19637,-0.08268 z m 2.301151,0.597379 a 0.53787994,0.29817253 38.403366 0 0 -0.199471,0.07338 0.53787994,0.29817253 38.403366 0 0 0.236162,0.567924 0.53787994,0.29817253 38.403366 0 0 0.606681,0.100252 0.53787994,0.29817253 38.403366 0 0 -0.236161,-0.567924 0.53787994,0.29817253 38.403366 0 0 -0.407211,-0.173633 z m 0.07751,2.27428 a 0.53787994,0.29817253 18.936148 0 0 -0.338481,0.156579 0.53787994,0.29817253 18.936148 0 0 0.412378,0.45682 0.53787994,0.29817253 18.936148 0 0 0.605648,-0.107487 0.53787994,0.29817253 18.936148 0 0 -0.412378,-0.456819 0.53787994,0.29817253 18.936148 0 0 -0.267167,-0.04909 z m 0.80977,0.910022 a 0.53787994,0.29817253 60.855382 0 0 -0.07648,0.0217 0.53787994,0.29817253 60.855382 0 0 0.0015,0.61495 0.53787994,0.29817253 60.855382 0 0 0.522449,0.324528 0.53787994,0.29817253 60.855382 0 0 -0.0016,-0.61495 0.53787994,0.29817253 60.855382 0 0 -0.445967,-0.346232 z m 0.74259,1.203027 a 0.53787994,0.29817253 64.81778 0 0 -0.07751,0.01654 0.53787994,0.29817253 64.81778 0 0 -0.04134,0.613399 0.53787994,0.29817253 64.81778 0 0 0.498678,0.360185 0.53787994,0.29817253 64.81778 0 0 0.04134,-0.613916 0.53787994,0.29817253 64.81778 0 0 -0.421163,-0.376205 z m 10.483081,0.04237 c -0.03961,0.326667 -0.08165,0.706113 -0.119889,1.012858 l -0.140043,1.124479 h -2.112533 c 0.249051,0.296144 0.481517,0.595736 0.682129,0.919841 l 1.306897,0.0067 -0.06615,1.455208 c -0.01842,0.406119 -0.07007,0.941072 -0.133842,1.505334 0.18685,0.739371 0.379641,0.815986 0.59738,2.718181 0.660086,5.766613 -6.565491,10.477913 -6.565491,10.477913 h 10.977108 c 0,0 -0.132972,-0.145244 -0.303858,-0.749825 a 0.64991486,0.28781945 83.307273 0 0 0.0863,-0.590145 0.64991486,0.28781945 83.307273 0 0 -0.342098,-0.611332 c -0.01437,-0.08585 -0.02865,-0.166601 -0.04289,-0.259932 a 0.64991486,0.28781945 85.050671 0 0 0.142627,-0.630453 0.64991486,0.28781945 85.050671 0 0 -0.299724,-0.618567 c -0.0094,-0.09033 -0.01883,-0.178382 -0.02791,-0.273368 a 0.64991486,0.28781945 86.491663 0 0 0.165881,-0.63252 0.64991486,0.28781945 86.491663 0 0 -0.269751,-0.620634 c -0.0077,-0.09885 -0.0151,-0.193975 -0.02274,-0.292488 A 0.64991486,0.28781945 87.008304 0 0 37.712928,31.35982 0.64991486,0.28781945 87.008304 0 0 37.402869,30.7273 c -0.0074,-0.09418 -0.01482,-0.191588 -0.02222,-0.285254 a 0.64991486,0.28781945 87.008304 0 0 0.219108,-0.657324 0.64991486,0.28781945 87.008304 0 0 -0.321427,-0.63407 0.64991486,0.28781945 87.008304 0 0 -0.0052,10e-4 c -0.009,-0.10379 -0.01819,-0.207733 -0.02739,-0.310575 a 0.58014172,0.24629728 86.976341 0 0 0.187068,-0.587561 0.58014172,0.24629728 86.976341 0 0 -0.276985,-0.564824 0.58014172,0.24629728 86.976341 0 0 -0.02222,0.0047 c -0.01353,-0.129894 -0.02665,-0.260817 -0.04082,-0.388607 a 0.58014172,0.24629728 83.210829 0 0 0.148828,-0.599446 0.58014172,0.24629728 83.210829 0 0 -0.286804,-0.544153 c -0.01621,-0.118134 -0.03355,-0.233693 -0.05064,-0.349333 a 0.58014172,0.24629728 80.537867 0 0 5.17e-4,0 0.58014172,0.24629728 80.537867 0 0 5.17e-4,0 0.58014172,0.24629728 80.537867 0 0 0.0016,-5.17e-4 0.58014172,0.24629728 80.537867 0 0 5.17e-4,0 0.58014172,0.24629728 80.537867 0 0 5.17e-4,0 0.58014172,0.24629728 80.537867 0 0 5.16e-4,0 0.58014172,0.24629728 80.537867 0 0 0.0016,-5.16e-4 0.58014172,0.24629728 80.537867 0 0 5.17e-4,0 0.58014172,0.24629728 80.537867 0 0 0.146761,-0.613916 0.58014172,0.24629728 80.537867 0 0 -0.338481,-0.530201 0.58014172,0.24629728 80.537867 0 0 -0.0083,0.0026 c -0.02776,-0.142669 -0.05638,-0.283437 -0.0863,-0.420646 a 0.58014172,0.24629728 76.508306 0 0 0.07751,-0.611849 0.58014172,0.24629728 76.508306 0 0 -0.36897,-0.505912 c -0.03332,-0.10753 -0.06571,-0.216581 -0.101286,-0.318844 a 0.52312878,0.21558059 73.519711 0 0 -0.0036,-0.518314 0.52312878,0.21558059 73.519711 0 0 -0.356051,-0.433566 0.52312878,0.21558059 73.519711 0 0 -0.02636,0.01395 c -0.05656,-0.128441 -0.07767,-0.180359 -0.152962,-0.348816 a 0.52312878,0.21558059 67.671369 0 0 -0.02635,-0.556555 0.52312878,0.21558059 67.671369 0 0 -0.397908,-0.395325 0.52312878,0.21558059 67.671369 0 0 -0.0072,0.0047 c -0.05754,-0.125556 -0.104786,-0.232928 -0.163814,-0.360185 a 0.52312878,0.21558059 67.671369 0 0 -0.03824,-0.543636 0.52312878,0.21558059 67.671369 0 0 -0.398425,-0.394808 0.52312878,0.21558059 67.671369 0 0 -0.0067,0.0041 c -0.04412,-0.09084 -0.08622,-0.175963 -0.128158,-0.260449 a 0.52312878,0.21558059 64.290794 0 0 -0.06408,-0.547253 0.52312878,0.21558059 64.290794 0 0 -0.421163,-0.371037 0.52312878,0.21558059 64.290794 0 0 -0.01447,0.01085 c -0.01087,-0.01401 -0.02413,-0.03436 -0.03307,-0.04341 z" /></g></g></svg>
